<?xml version="1.0" encoding="utf-8"?>
<!-- Generator: Adobe Illustrator 27.3.1, SVG Export Plug-In . SVG Version: 6.00 Build 0)  -->
<svg version="1.1" id="Capa_1" xmlns="http://www.w3.org/2000/svg" xmlns:xlink="http://www.w3.org/1999/xlink" x="0px" y="0px"
	 viewBox="0 0 512 512" style="enable-background:new 0 0 512 512;" xml:space="preserve">
<style type="text/css">
	.st0{fill:#FFFFFF;}
</style>
<g>
	<path class="st0" d="M286,512h-90c-8.3,0-15-6.7-15-15V300h-45c-8.3,0-15-6.7-15-15v-90c0-8.3,6.7-15,15-15h45v-75
		C181,47.1,228.1,0,286,0h90c8.3,0,15,6.7,15,15v90c0,8.3-6.7,15-15,15h-75v60h75c4.4,0,8.6,1.9,11.4,5.3c2.9,3.4,4.1,7.8,3.4,12.2
		l-15,90c-1.2,7.2-7.5,12.5-14.8,12.5h-60v197C301,505.3,294.3,512,286,512z"/>
</g>
</svg>
