<?xml version="1.0" encoding="utf-8"?>
<!-- Generator: Adobe Illustrator 27.3.1, SVG Export Plug-In . SVG Version: 6.00 Build 0)  -->
<svg version="1.1" id="Capa_1" xmlns="http://www.w3.org/2000/svg" xmlns:xlink="http://www.w3.org/1999/xlink" x="0px" y="0px"
	 viewBox="0 0 512 512" style="enable-background:new 0 0 512 512;" xml:space="preserve">
<style type="text/css">
	.st0{fill:#FFFFFF;}
</style>
<g>
	<g>
		<path class="st0" d="M467,198.7c-37.8-33.6-86.4-32.4-105.6-30.6c-26.7,3-45.6,13.2-59.4,24.3V181c0-8.4-6.6-15-15-15H180
			c-8.4,0-15,6.6-15,15v300c0,8.4,6.6,15,15,15h107c8.4,0,15-6.6,15-15V309.4c0-15,19.8-30,40.8-30.9c14.7-0.3,32.4,5.7,34.2,36V481
			c0,8.4,6.6,15,15,15h105c3.9,0,7.8-1.5,10.5-4.5c3-2.7,4.5-6.6,4.5-10.5V320.5C511.7,266.2,496.7,225.4,467,198.7z"/>
	</g>
	<g>
		<path class="st0" d="M120,166H15c-8.4,0-15,6.6-15,15v300c0,8.4,6.6,15,15,15h105c8.4,0,15-6.6,15-15V181
			C135,172.6,128.4,166,120,166z"/>
	</g>
	<g>
		<path class="st0" d="M67.5,16C30.3,16,0,43,0,76s30.3,60,67.5,60S135,109,135,76S104.7,16,67.5,16z"/>
	</g>
</g>
</svg>
