<?xml version="1.0" encoding="utf-8"?>
<!-- Generator: Adobe Illustrator 27.3.1, SVG Export Plug-In . SVG Version: 6.00 Build 0)  -->
<svg version="1.1" id="Capa_1" xmlns="http://www.w3.org/2000/svg" xmlns:xlink="http://www.w3.org/1999/xlink" x="0px" y="0px"
	 viewBox="0 0 512 512" style="enable-background:new 0 0 512 512;" xml:space="preserve">
<style type="text/css">
	.st0{fill:#FFFFFF;}
</style>
<g>
	<path class="st0" d="M168.6,461.3c-9.4,0-18.8-0.4-28.3-1.3c-49.4-4.4-93.7-18.4-133.2-42.9c-5.8-3.6-8.5-10.8-6.4-17.3
		s7.7-10.8,15.2-10.4c36.8,2.3,71.3-4.1,102.8-19.4c-31.5-12-53.6-34.3-67.1-67.6c-1.9-4.6-1.3-9.9,1.5-14c0.8-1.2,1.8-2.3,2.8-3.1
		c-24.5-20.6-37.6-48-39.7-82.9c-0.3-4.8,1.7-9.5,5.5-12.5c2.9-2.4,6.5-3.6,10.4-3.4c-8.7-14.5-13.6-30.7-14.8-48.4
		c-1.4-20.5,3.5-40.6,14.9-61.4c2.3-4.3,6.6-7.1,11.4-7.7s9.6,1.3,12.9,4.9c48.7,54.3,108.6,85.8,178.4,93.6
		c0.3-10.3,0.7-20.9,3.3-31.4c9.2-37.4,36.9-67.1,74.2-79.3C351,43.9,393,52,424.5,78.2c1.9,1.6,2.7,1.8,2.7,1.8
		c12.7-4.9,51.5-18.8,51.5-18.8c5.4-2,11.4-0.6,15.6,3.4c4.1,4,5.6,10.1,3.7,15.5c-2.5,7.5-5.9,14.5-10.2,21.3
		c1.9-0.1,4.8-0.1,6.7-0.1c5-0.7,10.5,1.2,14,5.4c5.3,6.4,4.7,16-1.7,21.4c-0.5,0.4-1.1,0.8-1.6,1.2l-8.6,8.3
		c-9.6,9.3-20.3,18.5-29.5,28.1c-1.7,1.8-2.8,3.9-2.9,4.5c-0.4,35.1-6.9,69.7-19.1,102.2C401.4,388,292.5,461.3,168.6,461.3z
		 M430.9,267.1h0.3H430.9z"/>
</g>
</svg>
