<?xml version="1.0" encoding="utf-8"?>
<!-- Generator: Adobe Illustrator 27.3.1, SVG Export Plug-In . SVG Version: 6.00 Build 0)  -->
<svg version="1.1" id="Capa_1" xmlns="http://www.w3.org/2000/svg" xmlns:xlink="http://www.w3.org/1999/xlink" x="0px" y="0px"
	 viewBox="0 0 512 512" style="enable-background:new 0 0 512 512;" xml:space="preserve">
<style type="text/css">
	.st0{fill:#FFFFFF;}
</style>
<g>
	<path class="st0" d="M256,0C115.3,0,0,115.3,0,256c0,46.5,13.6,92.5,37.3,132.1L0.8,492.3c-1.8,5.4-0.3,11.1,3.6,15.3
		c4.2,3.9,10.2,5.4,15.3,3.6l105.2-35.6C164.5,499.4,209.5,511,256,511c140.7,0,256-114.3,256-255S396.7,0,256,0z M411.7,362.5
		l-12,12c-34.6,33.7-141.7,22.4-211.8-47.7c-71.4-71.7-80.1-179.4-47.7-211.8l12-12c12.6-12.3,32.7-12.3,45,0l47.7,47.7
		c12.3,12.3,12.3,32.7,0,45l-12,12c-7.2,7.2-7.2,19.2,0,26.4l47.7,47.7c7.2,7.2,19.2,7.2,26.4,0l12-12c12-12,33-12,45,0l47.7,47.7
		c6,6,9.3,13.8,9.3,22.5C421,348.4,417.7,356.5,411.7,362.5z"/>
</g>
</svg>
