<?xml version="1.0" encoding="utf-8"?>
<!-- Generator: Adobe Illustrator 27.3.1, SVG Export Plug-In . SVG Version: 6.00 Build 0)  -->
<svg version="1.1" id="Capa_1" xmlns="http://www.w3.org/2000/svg" xmlns:xlink="http://www.w3.org/1999/xlink" x="0px" y="0px"
	 viewBox="0 0 512 512" style="enable-background:new 0 0 512 512;" xml:space="preserve">
<style type="text/css">
	.st0{fill:#FFFFFF;}
</style>
<g>
	<path class="st0" d="M437,61H75C33.6,61,0,94.6,0,136v240c0,41.4,33.6,75,75,75h362c41.4,0,75-33.6,75-75V136
		C512,94.6,478.4,61,437,61z M338.5,268.9l-135,77.7c-4.8,2.4-10.2,2.4-15,0c-4.5-2.7-7.5-7.8-7.5-13.2V181c0-5.4,2.7-10.2,7.5-12.9
		c4.5-2.7,10.2-2.7,14.7-0.3l135,75c4.8,2.7,7.8,7.8,7.8,13.2S343.3,266.2,338.5,268.9z"/>
</g>
</svg>
